<svg xmlns="http://www.w3.org/2000/svg" width="85.508" height="99.11" viewBox="0 0 85.508 99.11">
    <defs>
        <style>
            .cls-1{fill:#cde8f0}.cls-2{clip-path:url(#clip-path)}.cls-3{fill:#404040}
        </style>
        <clipPath id="clip-path">
            <path id="Path_116" d="M0 17.5h68.574v-87.467H0z" class="cls-1" data-name="Path 116" transform="translate(0 69.967)"/>
        </clipPath>
    </defs>
    <g id="Group_312" data-name="Group 312" transform="translate(-919.178 -3116.107)">
        <g id="Group_259" data-name="Group 259" transform="translate(919.177 3127.748)">
            <g id="Group_205" class="cls-2" data-name="Group 205">
                <g id="Group_204" data-name="Group 204">
                    <path id="Path_115" d="M8.571.022a24.192 24.192 0 0 0-8.009 2.29 13.151 13.151 0 0 1-12.192.115A21.583 21.583 0 0 0-26.128.408a17.068 17.068 0 0 0-13.5 14.314c-1.386 8.56.1 16.316 4.424 23.05a30.091 30.091 0 0 1 2.389 5.028l.126.314a4.287 4.287 0 0 1 .04 1.126l-.013.459a112.349 112.349 0 0 0 1.614 23.186c.807 4.294 4.8 16.214 9.461 18.878.021.011.042.01.062.02s.034.031.056.041a5.5 5.5 0 0 0 2.334.555 4.79 4.79 0 0 0 2.886-.991c6.376-4.7 6.869-17.362 6.905-19.852 0-2.061 1.61-3.938 3.38-3.938a3.752 3.752 0 0 1 3.5 3.968c.035 2.46.529 15.124 6.9 19.822a4.793 4.793 0 0 0 2.886.991 5.507 5.507 0 0 0 2.335-.555 1.765 1.765 0 0 0 .216-.121 18.488 18.488 0 0 0 6.392-8.295 48.791 48.791 0 0 0 3.643-13.968c.573-4.707 1.112-17.973 1.049-20.03a7.17 7.17 0 0 1 .88-3.732L22.2 40a22.37 22.37 0 0 1 1.165-2.034 30.7 30.7 0 0 0 5.074-18.373A22.476 22.476 0 0 0 25.811 8.7 17.635 17.635 0 0 0 8.571.022" class="cls-1" data-name="Path 115" transform="translate(40.128 .086)"/>
                </g>
            </g>
        </g>
        <path id="Path_153" d="M44.314 46.623L34.074 45.2a10.107 10.107 0 0 1-8.533-8.533l-1.422-10.24a.5.5 0 0 0-1 0L21.7 36.667a10.107 10.107 0 0 1-8.533 8.533l-10.24 1.423a.5.5 0 0 0 0 1l10.24 1.422a10.107 10.107 0 0 1 8.533 8.529l1.422 10.24a.5.5 0 0 0 1 0l1.422-10.24a10.107 10.107 0 0 1 8.533-8.533l10.24-1.422a.5.5 0 0 0-.003-.996z" class="cls-3" data-name="Path 153" transform="translate(948.444 3090.107)"/>
        <path id="Path_154" d="M25.768 37.476l-5.7-.791a5.624 5.624 0 0 1-4.749-4.749l-.791-5.7a.28.28 0 0 0-.554 0l-.791 5.7a5.624 5.624 0 0 1-4.749 4.749l-5.7.791a.28.28 0 0 0 0 .554l5.7.791a5.624 5.624 0 0 1 4.749 4.749l.791 5.7a.28.28 0 0 0 .554 0l.791-5.7a5.624 5.624 0 0 1 4.749-4.749l5.7-.791a.28.28 0 0 0 0-.554z" class="cls-3" data-name="Path 154" transform="translate(978.681 3116.402)"/>
    </g>
</svg>
