<svg xmlns="http://www.w3.org/2000/svg" width="129.016" height="97.14" viewBox="0 0 129.016 97.14">
    <defs>
        <style>
            .cls-1{fill:#ddd8e5}.cls-2{fill:#fff}.cls-3{fill:none;stroke:#ddd8e5;stroke-width:7px}
        </style>
    </defs>
    <g id="Group_299" data-name="Group 299" transform="translate(-1397 -3131.86)">
        <g id="Group_261" data-name="Group 261" transform="translate(2 -2)">
            <g id="Group_260" data-name="Group 260" transform="translate(31 3)">
                <rect id="Rectangle_215" width="106" height="80" class="cls-1" data-name="Rectangle 215" rx="9" transform="translate(1364 3148)"/>
                <path id="Union_1" d="M-5079.475-8718.326v-15.526H-5095v-9.8h15.524V-8760h9.8v16.343h16.341v9.8h-16.341v15.526z" class="cls-2" data-name="Union 1" transform="translate(6491.329 11927.327)"/>
            </g>
            <path id="Path_152" d="M6512.333 11931.981v-30.668h43.045v30.668" class="cls-3" data-name="Path 152" transform="translate(-5085.833 -8763.953)"/>
        </g>
        <g id="Group_263" data-name="Group 263" transform="translate(1335.469 3129.079)">
            <path id="Path_155" d="M179.643 20.657a23.1 23.1 0 0 1-21.215 21.413v-2.019c0-.034 0-.132-.005-.284.064-1.657.7-10.2 6.556-15.3 3.579-3.112 8.508-4.392 14.664-3.81z" data-name="Path 155" transform="translate(10.904 7.585)"/>
            <path id="Path_156" d="M160.8 10.859a22.223 22.223 0 0 1 7.685 17.21 18.539 18.539 0 0 0-1.685 1.289 21.754 21.754 0 0 0-6 9 21.753 21.753 0 0 0-6-9 18.59 18.59 0 0 0-1.683-1.289 22.23 22.23 0 0 1 7.683-17.21z" data-name="Path 156" transform="translate(6.737)"/>
            <path id="Path_157" d="M144.531 20.657c6.146-.58 11.069.694 14.648 3.8 5.873 5.087 6.507 13.7 6.573 15.33v.27a1.678 1.678 0 0 0 .012.212v1.801a23.1 23.1 0 0 1-21.233-21.413z" data-name="Path 157" transform="translate(0 7.585)"/>
        </g>
    </g>
</svg>
