<svg id="Layer_1" data-name="Layer 1" xmlns="http://www.w3.org/2000/svg" viewBox="0 0 200 200"><defs><style>.cls-1{fill:#404040;}.cls-2,.cls-3,.cls-4{fill:#fff;}.cls-2,.cls-3{stroke:#404040;stroke-miterlimit:10;}.cls-2{stroke-width:3px;}.cls-3{stroke-width:2px;}</style></defs><title>Icon_Specs_Kassa</title><circle class="cls-1" cx="100" cy="100" r="90.96"/><rect class="cls-2" x="33.62" y="61.32" width="132.77" height="77.36"/><path class="cls-3" d="M144.61,61.32A21.78,21.78,0,0,0,166.38,83.1V61.32Z"/><path class="cls-3" d="M166.38,116.9a21.78,21.78,0,0,0-21.77,21.78h21.77Z"/><path class="cls-3" d="M55.39,138.68A21.78,21.78,0,0,0,33.62,116.9v21.78Z"/><path class="cls-3" d="M33.62,83.1A21.78,21.78,0,0,0,55.39,61.32H33.62Z"/><circle class="cls-1" cx="100" cy="100" r="29.46"/><path class="cls-4" d="M105.48,83.91a9.27,9.27,0,0,0-3,.84,5.11,5.11,0,0,1-4.63,0,8.48,8.48,0,0,0-5.51-.74,6.37,6.37,0,0,0-5.13,5.28,11.53,11.53,0,0,0,1.68,8.5,11.08,11.08,0,0,1,.91,1.86l0,.11a1.38,1.38,0,0,1,0,.42v.17a40.23,40.23,0,0,0,.61,8.55c.31,1.59,1.83,6,3.6,7h0l0,0a2.25,2.25,0,0,0,.89.2,1.88,1.88,0,0,0,1.1-.36c2.42-1.74,2.61-6.41,2.62-7.33A1.43,1.43,0,0,1,100,107a1.4,1.4,0,0,1,1.33,1.47c0,.9.21,5.57,2.63,7.31a1.87,1.87,0,0,0,1.09.36,2.25,2.25,0,0,0,.89-.2l.08-.05a6.78,6.78,0,0,0,2.43-3.06,17.48,17.48,0,0,0,1.39-5.15c.21-1.74.42-6.63.39-7.39a2.69,2.69,0,0,1,.34-1.38l.14-.25a6.73,6.73,0,0,1,.44-.75A11.09,11.09,0,0,0,113,91.12a8.15,8.15,0,0,0-1-4,6.76,6.76,0,0,0-6.55-3.2"/></svg>