<svg xmlns="http://www.w3.org/2000/svg" width="159.302" height="123.11" viewBox="0 0 159.302 123.11">
    <defs>
        <style>
            .cls-1{fill:#404040}.cls-2{clip-path:url(#clip-path)}.cls-3{fill:none;stroke:#fff;stroke-width:5px}
        </style>
        <clipPath id="clip-path">
            <path id="Path_161" d="M0-35.138h28.321v-34.829H0z" class="cls-1" data-name="Path 161" transform="translate(0 69.967)"/>
        </clipPath>
    </defs>
    <g id="Group_281" data-name="Group 281" transform="translate(-887.354 -2215.281)">
        <g id="Group_273" class="cls-2" data-name="Group 273" transform="translate(887.354 2215.281)">
            <g id="Group_272" data-name="Group 272">
                <path id="Path_160" d="M-20.015-.043a10.275 10.275 0 0 0-3.307.912 5.611 5.611 0 0 1-5.035.046 9.209 9.209 0 0 0-5.988-.8 6.907 6.907 0 0 0-5.574 5.7 12.353 12.353 0 0 0 1.827 9.178 11.8 11.8 0 0 1 .986 2l.052.125a1.647 1.647 0 0 1 .017.449l-.006.183a43.166 43.166 0 0 0 .667 9.233c.333 1.71 1.984 6.456 3.907 7.517.009 0 .018 0 .026.008s.014.012.023.016a2.342 2.342 0 0 0 .964.221 2.026 2.026 0 0 0 1.192-.395c2.633-1.871 2.837-6.913 2.852-7.905a1.548 1.548 0 0 1 1.4-1.568 1.516 1.516 0 0 1 1.446 1.58c.015.98.219 6.022 2.851 7.893a2.028 2.028 0 0 0 1.192.395 2.344 2.344 0 0 0 .964-.221.737.737 0 0 0 .089-.048 7.4 7.4 0 0 0 2.64-3.3 18.876 18.876 0 0 0 1.5-5.563c.237-1.874.459-7.157.433-7.976a2.773 2.773 0 0 1 .363-1.486l.15-.272a8.832 8.832 0 0 1 .481-.81 11.9 11.9 0 0 0 2.1-7.316A8.694 8.694 0 0 0-12.9 3.411a7.366 7.366 0 0 0-7.12-3.454" class="cls-1" data-name="Path 160" transform="translate(40.128 .086)"/>
            </g>
        </g>
        <g id="Group_275" class="cls-2" data-name="Group 275" transform="translate(887.354 2259.422)">
            <g id="Group_274" data-name="Group 274">
                <path id="Path_162" d="M-20.015-.043a10.275 10.275 0 0 0-3.307.912 5.611 5.611 0 0 1-5.035.046 9.209 9.209 0 0 0-5.988-.8 6.907 6.907 0 0 0-5.574 5.7 12.353 12.353 0 0 0 1.827 9.178 11.8 11.8 0 0 1 .986 2l.052.125a1.647 1.647 0 0 1 .017.449l-.006.183a43.166 43.166 0 0 0 .667 9.233c.333 1.71 1.984 6.456 3.907 7.517.009 0 .018 0 .026.008s.014.012.023.016a2.342 2.342 0 0 0 .964.221 2.026 2.026 0 0 0 1.192-.395c2.633-1.871 2.837-6.913 2.852-7.905a1.548 1.548 0 0 1 1.4-1.568 1.516 1.516 0 0 1 1.446 1.58c.015.98.219 6.022 2.851 7.893a2.028 2.028 0 0 0 1.192.395 2.344 2.344 0 0 0 .964-.221.737.737 0 0 0 .089-.048 7.4 7.4 0 0 0 2.64-3.3 18.876 18.876 0 0 0 1.5-5.563c.237-1.874.459-7.157.433-7.976a2.773 2.773 0 0 1 .363-1.486l.15-.272a8.832 8.832 0 0 1 .481-.81 11.9 11.9 0 0 0 2.1-7.316A8.694 8.694 0 0 0-12.9 3.411a7.366 7.366 0 0 0-7.12-3.454" class="cls-1" data-name="Path 162" transform="translate(40.128 .086)"/>
            </g>
        </g>
        <g id="Group_277" class="cls-2" data-name="Group 277" transform="translate(887.354 2303.563)">
            <g id="Group_276" data-name="Group 276">
                <path id="Path_164" d="M-20.015-.043a10.275 10.275 0 0 0-3.307.912 5.611 5.611 0 0 1-5.035.046 9.209 9.209 0 0 0-5.988-.8 6.907 6.907 0 0 0-5.574 5.7 12.353 12.353 0 0 0 1.827 9.178 11.8 11.8 0 0 1 .986 2l.052.125a1.647 1.647 0 0 1 .017.449l-.006.183a43.166 43.166 0 0 0 .667 9.233c.333 1.71 1.984 6.456 3.907 7.517.009 0 .018 0 .026.008s.014.012.023.016a2.342 2.342 0 0 0 .964.221 2.026 2.026 0 0 0 1.192-.395c2.633-1.871 2.837-6.913 2.852-7.905a1.548 1.548 0 0 1 1.4-1.568 1.516 1.516 0 0 1 1.446 1.58c.015.98.219 6.022 2.851 7.893a2.028 2.028 0 0 0 1.192.395 2.344 2.344 0 0 0 .964-.221.737.737 0 0 0 .089-.048 7.4 7.4 0 0 0 2.64-3.3 18.876 18.876 0 0 0 1.5-5.563c.237-1.874.459-7.157.433-7.976a2.773 2.773 0 0 1 .363-1.486l.15-.272a8.832 8.832 0 0 1 .481-.81 11.9 11.9 0 0 0 2.1-7.316A8.694 8.694 0 0 0-12.9 3.411a7.366 7.366 0 0 0-7.12-3.454" class="cls-1" data-name="Path 164" transform="translate(40.128 .086)"/>
            </g>
        </g>
        <g id="Group_278" data-name="Group 278" transform="translate(932.02 2223)">
            <path id="Path_166" d="M6027.02 10989h114.637" class="cls-3" data-name="Path 166" transform="translate(-6027.02 -10989)"/>
            <path id="Path_167" d="M6027.02 10989h72.875" class="cls-3" data-name="Path 167" transform="translate(-6027.02 -10976)"/>
        </g>
        <g id="Group_279" data-name="Group 279" transform="translate(932.02 2270.162)">
            <path id="Path_166-2" d="M6027.02 10989h114.637" class="cls-3" data-name="Path 166" transform="translate(-6027.02 -10989)"/>
            <path id="Path_167-2" d="M6027.02 10989h72.875" class="cls-3" data-name="Path 167" transform="translate(-6027.02 -10976)"/>
        </g>
        <g id="Group_280" data-name="Group 280" transform="translate(932.02 2314.281)">
            <path id="Path_166-3" d="M6027.02 10989h114.637" class="cls-3" data-name="Path 166" transform="translate(-6027.02 -10989)"/>
            <path id="Path_167-3" d="M6027.02 10989h72.875" class="cls-3" data-name="Path 167" transform="translate(-6027.02 -10976)"/>
        </g>
    </g>
</svg>
