<svg xmlns="http://www.w3.org/2000/svg" width="88" height="119" viewBox="0 0 88 119">
    <defs>
        <style>
            .cls-1{fill:#c0e4da}.cls-2{fill:#fff}.cls-3{fill:none;stroke:#404040;stroke-width:5px}.cls-4{clip-path:url(#clip-path)}
        </style>
        <clipPath id="clip-path">
            <path id="Path_172" d="M0-38.665h25.453v-31.3H0z" class="cls-1" data-name="Path 172" transform="translate(0 69.967)"/>
        </clipPath>
    </defs>
    <g id="Group_291" data-name="Group 291" transform="translate(-1282 -2220)">
        <rect id="Rectangle_216" width="88" height="119" class="cls-2" data-name="Rectangle 216" rx="10" transform="translate(1282 2220)"/>
        <g id="Group_287" data-name="Group 287" transform="translate(0 26)">
            <g id="Group_285" data-name="Group 285" transform="translate(1294.014 2260.719)">
                <path id="Path_166" d="M6027.02 10989h63.21" class="cls-3" data-name="Path 166" transform="translate(-6027.02 -10989)"/>
                <path id="Path_167" d="M6027.02 10989h63.21" class="cls-3" data-name="Path 167" transform="translate(-6027.02 -10976)"/>
            </g>
            <g id="Group_286" data-name="Group 286" transform="translate(1294.014 2287.719)">
                <path id="Path_166-2" d="M6027.02 10989h41.986" class="cls-3" data-name="Path 166" transform="translate(-6027.02 -10989)"/>
            </g>
        </g>
        <g id="Group_289" class="cls-4" data-name="Group 289" transform="translate(1313 2235.527)">
            <g id="Group_288" data-name="Group 288">
                <path id="Path_171" d="M-22.052-.047a9.235 9.235 0 0 0-2.973.82 5.042 5.042 0 0 1-4.525.04 8.277 8.277 0 0 0-5.381-.722 6.208 6.208 0 0 0-5.01 5.123 11.1 11.1 0 0 0 1.641 8.248 10.6 10.6 0 0 1 .886 1.8l.047.112a1.479 1.479 0 0 1 .015.4v.164a38.8 38.8 0 0 0 .6 8.3c.3 1.537 1.783 5.8 3.512 6.756.008 0 .016 0 .023.007s.013.011.021.015a2.1 2.1 0 0 0 .866.2 1.821 1.821 0 0 0 1.071-.355c2.367-1.681 2.55-6.213 2.563-7.1a1.392 1.392 0 0 1 1.255-1.409 1.362 1.362 0 0 1 1.3 1.42c.013.88.2 5.412 2.563 7.094a1.822 1.822 0 0 0 1.071.355 2.107 2.107 0 0 0 .867-.2.662.662 0 0 0 .08-.043 6.648 6.648 0 0 0 2.373-2.968 16.964 16.964 0 0 0 1.35-5c.213-1.684.413-6.432.389-7.168a2.492 2.492 0 0 1 .327-1.335l.135-.244a7.938 7.938 0 0 1 .432-.728 10.7 10.7 0 0 0 1.883-6.575 7.814 7.814 0 0 0-.975-3.9 6.62 6.62 0 0 0-6.4-3.1" class="cls-1" data-name="Path 171" transform="translate(40.128 .086)"/>
            </g>
        </g>
    </g>
</svg>
