<svg xmlns="http://www.w3.org/2000/svg" width="101.809" height="118.003" viewBox="0 0 101.809 118.003">
    <defs>
        <style>
            .cls-1{fill:#b4b4b4}.cls-2{clip-path:url(#clip-path)}.cls-3{fill:#ddd}.cls-4{fill:#404040}
        </style>
        <clipPath id="clip-path">
            <path id="Path_116" d="M0 34.176h81.646V-69.967H0z" class="cls-1" data-name="Path 116" transform="translate(0 69.967)"/>
        </clipPath>
    </defs>
    <g id="Group_262" data-name="Group 262" transform="translate(-919.178 -3116.107)">
        <g id="Group_259" data-name="Group 259" transform="translate(919.177 3199.935)">
            <g id="Group_205" class="cls-2" data-name="Group 205" transform="translate(0 -69.967)">
                <g id="Group_204" data-name="Group 204">
                    <path id="Path_115" d="M17.854.042a28.8 28.8 0 0 0-9.535 2.727A15.658 15.658 0 0 1-6.2 2.906 25.7 25.7 0 0 0-23.46.5a20.322 20.322 0 0 0-16.07 17.045c-1.65 10.191.121 19.426 5.267 27.444a35.827 35.827 0 0 1 2.842 5.99l.15.374a5.1 5.1 0 0 1 .048 1.341l-.016.546a133.766 133.766 0 0 0 1.922 27.606c.961 5.113 5.72 19.305 11.265 22.477.025.013.051.012.074.024s.04.037.066.049a6.55 6.55 0 0 0 2.779.661 5.7 5.7 0 0 0 3.436-1.18C-4.106 97.283-3.52 82.2-3.476 79.24c0-2.454 1.917-4.689 4.024-4.689a4.467 4.467 0 0 1 4.169 4.724c.042 2.929.63 18.007 8.22 23.6a5.707 5.707 0 0 0 3.436 1.18 6.556 6.556 0 0 0 2.78-.661 2.1 2.1 0 0 0 .257-.144c4.1-2.752 6.219-6.723 7.61-9.876a58.093 58.093 0 0 0 4.332-16.635c.682-5.6 1.324-21.4 1.248-23.848a8.537 8.537 0 0 1 1.048-4.443l.432-.813a26.636 26.636 0 0 1 1.387-2.422c4.228-6.271 6.2-13.426 6.041-21.876A26.761 26.761 0 0 0 38.38 10.37 21 21 0 0 0 17.854.042" class="cls-3" data-name="Path 115" transform="translate(40.128 .086)"/>
                </g>
            </g>
        </g>
        <path id="Path_153" d="M52.285 50.554L40.093 48.86a12.034 12.034 0 0 1-10.16-10.16l-1.694-12.192a.6.6 0 0 0-1.185 0L25.36 38.7A12.034 12.034 0 0 1 15.2 48.86L3.008 50.554a.6.6 0 0 0 0 1.185L15.2 53.433a12.034 12.034 0 0 1 10.16 10.16l1.693 12.192a.6.6 0 0 0 1.185 0l1.693-12.192a12.034 12.034 0 0 1 10.16-10.16l12.192-1.693a.6.6 0 0 0 .002-1.186z" class="cls-4" data-name="Path 153" transform="translate(954.5 3090.107)"/>
        <path id="Path_154" d="M30.2 39.663l-6.784-.942a6.7 6.7 0 0 1-5.654-5.654l-.942-6.784a.334.334 0 0 0-.66 0l-.942 6.784a6.7 6.7 0 0 1-5.654 5.654l-6.784.942a.334.334 0 0 0 0 .66l6.784.942a6.7 6.7 0 0 1 5.654 5.654l.942 6.784a.334.334 0 0 0 .66 0l.942-6.784a6.7 6.7 0 0 1 5.654-5.654l6.784-.942a.334.334 0 0 0 0-.66z" class="cls-4" data-name="Path 154" transform="translate(990.5 3121.414)"/>
    </g>
</svg>
